# xmcd
#
# Track frame offsets:
#	150
#	19055
#	32504
#	42341
#	62736
#	77141
#	94687
#	116243
#	127928
#	144100
#	157235
#	171270
#
# Disc length: 2472 seconds
#
# Revision: 0
# Processed by: cddbd v1.5.2PL0 Copyright (c) Steve Scherf et al.
# Submitted via: EasyCDDAExtractor 2010.6.0.0
#
DISCID=9a09a60c
DTITLE=Sweet Jeena and her Sweethearts - Rock'n'roll picnic
DYEAR=1900
DGENRE=
TTITLE0=Don't talk baby
TTITLE1=More more more
TTITLE2=Tongue tied
TTITLE3=Lovers like me
TTITLE4=Spare parts
TTITLE5=Hard drivin' mama
TTITLE6=Indian moon
TTITLE7=Hard runnin'
TTITLE8=Lovely summer night
TTITLE9=Black denim trousers
TTITLE10=Waiting for your call
TTITLE11=Rock'n'roll picnic
EXTD=
EXTT0=
EXTT1=
EXTT2=
EXTT3=
EXTT4=
EXTT5=
EXTT6=
EXTT7=
EXTT8=
EXTT9=
EXTT10=
EXTT11=
PLAYORDER=
